<svg xmlns="http://www.w3.org/2000/svg" xmlns:undefined="http://sodipodi.sourceforge.net/DTD/sodipodi-0.dtd" xml:space="preserve" version="1.1" viewBox="10.5 1.5 841.89 595.28">
 <defs id="defs6">
  <clipPath id="clipPath16" clipPathUnits="userSpaceOnUse">
   <path id="path14" d="m10.5,596.776l841.89,0l0,-595.276l-841.89,0l0,595.276z"/>
  </clipPath>
 </defs>
 <g>
  <title>Layer 1</title>
  <g transform="matrix(14.5632 0 0 -14.5632 -1341.89 7068.3)" id="g18">
   <path fill-rule="nonzero" fill="#ffffff" id="path20" d="m130.69633,455.57158l0,0c0.5,-0.327 1.144,-0.333 1.649,-0.015l0.047,0.03c0.445,0.279 0.715,0.786 0.715,1.293l0,3.149c0,0 7.5,5.75 8.063,5.812c0.562,0.063 -5.592,-6.125 -5.592,-6.125l0,-2.724c0,-0.08 -0.032,-0.156 -0.09,-0.212l-3.755,-3.656c-0.195,-0.189 -0.508,-0.181 -0.692,0.018l-3.376,3.635c-0.051,0.055 -0.079,0.127 -0.079,0.201l0,2.769c0,0 -7.073,6.657 -5.916,6.125c1.156,-0.531 8.406,-5.781 8.406,-5.781l-0.071,-3.207c-0.012,-0.527 0.25,-1.023 0.691,-1.312"/>
  </g>
 </g>
</svg>