<svg xmlns="http://www.w3.org/2000/svg" xmlns:xlink="http://www.w3.org/1999/xlink" viewBox="0 0 48 48" fill="#5B5B5B">
  <path d="M24 4C18.494917 4 14 8.494921 14 14C14 19.505079 18.494917 24 24 24C29.505083 24 34 19.505079 34 14C34 8.494921 29.505083 4 24 4 z M 12.5 28C10.032499 28 8 30.032499 8 32.5L8 33.699219C8 36.640082 9.8647133 39.277974 12.708984 41.091797C15.553256 42.90562 19.444841 44 24 44C28.555159 44 32.446744 42.90562 35.291016 41.091797C38.135287 39.277974 40 36.640082 40 33.699219L40 32.5C40 30.032499 37.967501 28 35.5 28L12.5 28 z" fill="#5B5B5B" />
</svg>