<svg xmlns="http://www.w3.org/2000/svg" xmlns:xlink="http://www.w3.org/1999/xlink" viewBox="0 0 26 26" fill="#5B5B5B">
  <path d="M21 14.699219C18.199219 18.898438 13.800781 22.699219 13.601563 22.800781C13.5 22.898438 13.199219 23 13 23C12.800781 23 12.5 22.898438 12.300781 22.800781C12.101563 22.699219 7.699219 18.800781 4.898438 14.699219C4.699219 14.398438 4.699219 14 4.800781 13.601563C5.101563 13.199219 5.398438 13 5.800781 13L9.5 13C9.5 13 10 4.300781 10.300781 3.898438C10.699219 3.398438 11.898438 3 13 3C14.101563 3 15.199219 3.398438 15.601563 3.898438C15.898438 4.300781 16.5 13 16.5 13L20.199219 13C20.601563 13 20.898438 13.199219 21.101563 13.601563C21.300781 13.898438 21.199219 14.300781 21 14.699219Z" fill="#5B5B5B" />
</svg>